<svg id="logo_svg__\u0421\u043B\u043E\u0439_1" xmlns="http://www.w3.org/2000/svg" width="162" height="33" x="0" y="0" style="enable-background:new 0 0 162 33" xml:space="preserve">
    <style>
        .logo_svg__st0{fill:#ff4b5f}.logo_svg__st1,.logo_svg__st2{fill:#0f3a8c}.logo_svg__st2{fill-rule:evenodd;clip-rule:evenodd}.logo_svg__st3,.logo_svg__st4{fill:#003791}.logo_svg__st4{fill-rule:evenodd;clip-rule:evenodd}
    </style>
    <path class="logo_svg__st0" d="M56.5 18.6h-2.1l-4.7 5.3v-5.3H48v5.3l-4.7-5.3h-2.2l4.1 4.5-3.9 5.4-.3.5h2.1l3.3-4.6 1.6 1.8V29h1.7v-2.8l1.6-1.8 3.2 4.5.1.1h2.1l-4.2-5.9zm2.7 7.5v-7.5h-1.7V29h1.6l5.3-7.5V29h1.7V18.6h-1.5zM84 23h-5.1v-4.4h-1.7V29h1.7v-4.4H84V29h1.7V18.6H84zm-10 .7c.3-.2.6-.4.8-.7.3-.4.5-1 .5-1.6 0-.8-.3-1.6-1-2.1s-1.5-.8-2.6-.8c-.8 0-1.5.1-2.1.3-.6.2-1.1.6-1.7 1l-.2.2 1 1.2.2-.2c.8-.7 1.7-1 2.7-1 .6 0 1 .1 1.4.4.3.3.5.6.5 1 0 .5-.2.8-.6 1.1-.4.3-.9.4-1.5.4H70v1.5h1.4c.7 0 1.3.1 1.8.4.4.2.6.6.6 1.1 0 .5-.2.8-.6 1.1-.4.3-.9.5-1.4.5-1.2 0-2.3-.4-3.2-1.3l-.2-.2-1.1 1.2.2.2c1.2 1.1 2.7 1.7 4.3 1.7 1.1 0 2-.3 2.7-.9.7-.6 1.1-1.3 1.1-2.2 0-.7-.2-1.3-.6-1.7-.3-.2-.6-.4-1-.6z"></path>
    <path class="logo_svg__st1" d="M49.4 9.9c-.7.6-1.6.9-2.5.9-2.2 0-4-1.7-4-3.9s1.8-3.9 4-3.9c1 0 1.9.4 2.6 1l1.4-1.4c-1.1-.9-2.5-1.5-4-1.5C43.6 1 41 3.6 41 6.8s2.6 5.9 5.9 5.9c1.5 0 2.9-.6 3.9-1.5l-1.4-1.3zm63.2-8.4-4.4 5.2-4.4-5.2v.1-.1H102v10.8h1.8v-8l4.4 5.2 4.4-5.1v7.8h1.7V1.5h-1.7z"></path>
    <path class="logo_svg__st2" d="M58.2 12.7c3.3 0 5.9-2.6 5.9-5.8 0-3.2-2.7-5.8-5.9-5.8s-5.9 2.6-5.9 5.8c-.1 3.2 2.6 5.8 5.9 5.8zm-.1-9.8c2.2 0 4 1.7 4 3.9s-1.8 3.9-4 3.9-4-1.7-4-3.9c.1-2.1 1.8-3.9 4-3.9zm36.2 9.8c3.3 0 5.9-2.6 5.9-5.8 0-3.2-2.6-5.8-5.9-5.8-3.3 0-5.9 2.6-5.9 5.8 0 3.2 2.6 5.8 5.9 5.8zm0-9.8c2.2 0 4 1.7 4 3.9s-1.8 3.9-4 3.9-4-1.7-4-3.9c0-2.1 1.8-3.9 4-3.9z"></path>
    <path class="logo_svg__st1" d="M88.4 1.5H86L81.5 6h-1.8V1.5H78v10.8h1.7V7.7h1.8l4.5 4.5h2.4l-5.3-5.4 5.3-5.3z"></path>
    <path class="logo_svg__st3" d="M162 1.5h-2.4L155.1 6h-1.8V1.5h-1.7v10.8h1.7V7.7h1.8l4.5 4.5h2.4l-5.3-5.4 5.3-5.3z"></path>
    <path class="logo_svg__st4" d="M138.2 12.2h-1.9l-1.1-2.3h-5.7l-1.1 2.3h-1.9l4.8-10.8h2l4.9 10.8zm-5.8-8.5-2 4.5h4.1l-2.1-4.5z"></path>
    <path class="logo_svg__st3" d="M147.6 1.5V6h-6.4V1.5h-1.8v10.7h1.8V7.7h6.4v4.5h1.8V1.5h-1.8z"></path>
    <path class="logo_svg__st4" d="M122.8 6c1.7 0 3.2 1.4 3.2 3.1 0 1.7-1.4 3.1-3.2 3.2h-6.4V1.5h8.5v1.7h-6.7V6h4.6zm-4.6 4.5h4.6c.8 0 1.4-.6 1.4-1.4 0-.7-.6-1.4-1.4-1.4h-4.6v2.8z"></path>
    <path class="logo_svg__st2" d="M75.7 9.1c0-.9-.4-1.7-1-2.3.6-.6 1-1.4 1-2.3 0-1.7-1.4-3.1-3.1-3.1h-6.4v10.8h6.4c1.7 0 3.1-1.4 3.1-3.1zm-7.8-5.9h4.6c.8 0 1.4.6 1.4 1.4S73.3 6 72.5 6h-4.6V3.2zm0 7.3h4.6c.8 0 1.4-.6 1.4-1.4 0-.7-.6-1.4-1.4-1.4h-4.6v2.8z"></path>
    <path class="logo_svg__st3" d="M19.8.3v8.5h-3.3c-4.2 0-7.6 3.3-7.6 7.5s3.4 7.5 7.6 7.5h3.3v8.5c7.6-1.4 13.2-8 13.2-15.9.1-8-5.6-14.6-13.2-16.1z"></path>
    <path class="logo_svg__st0" d="M16.5 26.4c-5.7 0-10.3-4.5-10.3-10.1S10.8 6.2 16.5 6.2h.6V0h-.6C7.4 0 0 7.3 0 16.3s7.4 16.3 16.5 16.3h.6v-6.2h-.6zm78.1-3.2c-.7-.5-1.7-.8-2.9-.8h-2.2v-3.8h-1.7V29h4.1c1.2 0 2.1-.3 2.8-.9.7-.6 1.1-1.5 1.1-2.5 0-1.1-.4-1.9-1.2-2.4zm-1.1 3.9c-.4.3-1 .5-1.6.5h-2.3v-3.8h2.2c.7 0 1.2.1 1.7.4.5.3.7.8.7 1.4-.1.6-.3 1.1-.7 1.5z">
</path>
</svg>