<svg xmlns="http://www.w3.org/2000/svg" width="30px" height="30px" version="1.0" viewBox="0 0 30 30">
   <path style="fill:#FC5055" d="M0 15c0,8.29 6.72,15.01 15.01,15.01 0.2,0 0.4,0 0.6,-0.01l0 -5.69 -0.6 0c-5.14,0 -9.31,-4.17 -9.31,-9.31 0,-5.14 4.17,-9.3 9.31,-9.3l0.6 0 0 -5.69c-0.17,0 -0.33,-0.01 -0.49,-0.01l-0.02 0 -0.14 0c-8.27,0.02 -14.96,6.73 -14.96,15z"/>
   <path style="fill:#003790" d="M18.01 0.3l0 7.8 -3 0c-3.82,0 -6.91,3.09 -6.91,6.9 0,3.82 3.09,6.91 6.91,6.91l3 0 0 7.8c6.85,-1.39 12,-7.44 12,-14.71 0,-7.26 -5.15,-13.31 -12,-14.7z"/>
</svg>
