<svg width="153" height="19" fill="none" xmlns="http://www.w3.org/2000/svg">
    <path d="M10.806.192v4.712H8.995c-2.289 0-4.132 1.859-4.132 4.166 0 2.308 1.843 4.167 4.132 4.167h1.811v4.711c4.132-.801 7.215-4.455 7.215-8.878 0-4.39-3.083-8.044-7.215-8.878Z" fill="#003791"></path>
    <path d="M8.994 14.711c-3.082 0-5.593-2.532-5.593-5.64 0-3.11 2.51-5.642 5.593-5.642h.35V0h-.35C4.036 0 0 4.07 0 9.07c0 5.032 4.036 9.102 8.994 9.102h.35v-3.46h-.35Z" fill="#FF4B5F"></path>
    <path d="M30.734 12.243c-.7.577-1.59.93-2.575.93-2.256 0-4.068-1.827-4.068-4.103 0-2.275 1.812-4.102 4.068-4.102a3.96 3.96 0 0 1 2.67 1.026l1.43-1.443a6.023 6.023 0 0 0-4.1-1.602c-3.369 0-6.07 2.756-6.07 6.121 0 3.366 2.701 6.154 6.07 6.154a5.88 5.88 0 0 0 4.005-1.538l-1.43-1.443ZM95.411 3.43 90.93 8.877l-4.513-5.449-.032.065v-.065h-1.812V14.71h1.812V6.442l4.545 5.449 4.481-5.32v8.14h1.78V3.43h-1.78Z" fill="#003790"></path>
    <path fill-rule="evenodd" clip-rule="evenodd" d="M39.665 15.192c3.337 0 6.07-2.724 6.07-6.122 0-3.365-2.733-6.121-6.07-6.121s-6.07 2.756-6.07 6.121c0 3.366 2.7 6.122 6.07 6.122Zm-.032-10.224c2.256 0 4.068 1.827 4.068 4.102 0 2.276-1.812 4.103-4.068 4.103-2.257 0-4.068-1.827-4.068-4.103 0-2.275 1.811-4.102 4.068-4.102ZM76.66 15.192c3.337 0 6.07-2.724 6.07-6.122 0-3.365-2.702-6.121-6.07-6.121-3.338 0-6.07 2.756-6.07 6.121 0 3.366 2.7 6.122 6.07 6.122Zm0-10.224c2.256 0 4.068 1.827 4.068 4.102 0 2.276-1.844 4.103-4.068 4.103-2.257 0-4.069-1.827-4.069-4.103 0-2.275 1.812-4.102 4.069-4.102Z" fill="#003790"></path>
    <path d="M70.557 3.43H68.11l-4.608 4.743h-1.876V3.429h-1.78v11.282h1.78V10h1.844l4.608 4.711h2.416l-5.467-5.609 5.53-5.673Z" fill="#003790"></path>
    <path d="M145.946 3.43h-2.416l-4.64 4.743h-1.875V3.429h-1.78v11.282h1.78V10h1.875l4.577 4.711h2.415l-5.435-5.609 5.499-5.673Z" fill="#003791"></path>
    <path fill-rule="evenodd" clip-rule="evenodd" d="M121.6 14.711h-1.97l-1.081-2.436h-5.784l-1.081 2.436h-1.971L114.64 3.43h2.034l4.926 11.282Zm-5.943-8.974-2.098 4.743h4.195l-2.097-4.743Z" fill="#003791"></path>
    <path fill-rule="evenodd" clip-rule="evenodd" d="M57.558 11.442c0-.93-.381-1.763-1.017-2.372.604-.609 1.017-1.442 1.017-2.371 0-1.795-1.43-3.27-3.21-3.27h-6.547v11.314h6.547c1.78-.032 3.21-1.506 3.21-3.301Zm-7.945-6.186h4.703c.795 0 1.43.641 1.43 1.443a1.43 1.43 0 0 1-1.43 1.442h-4.703V5.256Zm0 7.66h4.703c.795 0 1.43-.673 1.462-1.474 0-.77-.635-1.442-1.43-1.442h-4.735v2.916Z" fill="#003790"></path>
    <path d="M131.199 3.461v4.712h-6.516V3.46h-1.811v11.22h1.811V10h6.516v4.68h1.811V3.461h-1.811Z" fill="#003791"></path>
    <path fill-rule="evenodd" clip-rule="evenodd" d="M105.836 8.173c1.78 0 3.242 1.474 3.242 3.269a3.318 3.318 0 0 1-3.242 3.301h-6.515V3.43h8.676v1.827h-6.865v2.917h4.704Zm-4.704 4.743h4.704c.795 0 1.43-.673 1.43-1.474 0-.77-.635-1.442-1.43-1.442h-4.704v2.916Z" fill="#003791"></path>
</svg>