<?xml version="1.0" encoding="UTF-8"?>
<!DOCTYPE svg PUBLIC "-//W3C//DTD SVG 1.1//EN" "http://www.w3.org/Graphics/SVG/1.1/DTD/svg11.dtd">
<!-- Creator: CorelDRAW 2021 (64-Bit) -->
<svg xmlns="http://www.w3.org/2000/svg" xml:space="preserve" width="170px" height="30px" version="1.1" style="shape-rendering:geometricPrecision; text-rendering:geometricPrecision; image-rendering:optimizeQuality; fill-rule:evenodd; clip-rule:evenodd"
viewBox="0 0 170 30.01"
 xmlns:xlink="http://www.w3.org/1999/xlink"
 xmlns:xodm="http://www.corel.com/coreldraw/odm/2003">
 <defs>
  <style type="text/css">
   <![CDATA[
    .fil0 {fill:#003790;fill-rule:nonzero}
    .fil1 {fill:#FC5055;fill-rule:nonzero}
   ]]>
  </style>
 </defs>
 <g id="Layer_x0020_1">
  <metadata id="CorelCorpID_0Corel-Layer"/>
  <g id="_2073384565488">
   <path class="fil0" d="M42.58 0.31c2.19,0 3.98,0.96 4.73,1.68l-1.26 1.55c-0.61,-0.55 -1.97,-1.3 -3.49,-1.3 -2.76,0 -4.48,1.89 -4.48,4.49 0,2.6 1.64,4.49 4.51,4.49 1.67,0 3.11,-0.88 3.74,-1.49l1.19 1.59c-0.75,0.79 -2.63,1.83 -4.94,1.83 -4.06,0 -6.57,-2.72 -6.57,-6.42 0,-3.7 2.58,-6.42 6.57,-6.42z"/>
   <path class="fil0" d="M55.1 11.22c2.54,0 4.42,-1.91 4.42,-4.49 0,-2.58 -1.88,-4.49 -4.42,-4.49 -2.55,0 -4.42,1.91 -4.42,4.49 0,2.58 1.87,4.49 4.42,4.49zm0 -10.91c3.75,0 6.49,2.72 6.49,6.42 0,3.7 -2.74,6.42 -6.49,6.42 -3.76,0 -6.49,-2.72 -6.49,-6.42 0,-3.7 2.73,-6.42 6.49,-6.42z"/>
   <path class="fil0" d="M70.45 10.94c1.42,0 1.96,-0.79 1.96,-1.65 0,-0.93 -0.65,-1.68 -1.93,-1.68l-4.68 0 0 3.33 4.65 0zm-4.65 -8.42l0 3.26 3.89 -0.02c1.39,0 2.11,-0.77 2.11,-1.68 0,-0.84 -0.62,-1.56 -1.85,-1.56l-4.15 0zm8.68 6.79c0,1.81 -1.16,3.56 -4.16,3.56l-6.54 0 0 -12.28 6.16 0c2.49,0 3.93,1.54 3.93,3.28 0,0.98 -0.46,1.88 -1.55,2.6 1.11,0.36 2.16,1.15 2.16,2.84z"/>
   <polygon class="fil0" points="82.55,6.54 87.99,12.87 85.31,12.87 80.76,7.5 78.43,7.5 78.43,12.87 76.41,12.87 76.41,0.59 78.43,0.59 78.43,5.66 80.76,5.66 85.2,0.59 87.88,0.59 "/>
   <path class="fil0" d="M94.22 11.22c2.54,0 4.42,-1.91 4.42,-4.49 0,-2.58 -1.88,-4.49 -4.42,-4.49 -2.55,0 -4.42,1.91 -4.42,4.49 0,2.58 1.87,4.49 4.42,4.49zm0 -10.91c3.75,0 6.49,2.72 6.49,6.42 0,3.7 -2.74,6.42 -6.49,6.42 -3.76,0 -6.49,-2.72 -6.49,-6.42 0,-3.7 2.73,-6.42 6.49,-6.42z"/>
   <polygon class="fil0" points="114.29,0.59 116.23,0.59 116.23,12.87 114.22,12.87 114.22,3.75 110.18,9.13 108.95,9.13 104.92,3.75 104.92,12.87 102.9,12.87 102.9,0.59 104.85,0.59 109.57,6.89 "/>
   <path class="fil0" d="M125.53 10.94c1.4,0 2.04,-0.77 2.04,-1.7 0,-0.92 -0.64,-1.7 -2.04,-1.7l-4.56 0 0 3.4 4.56 0zm-0.05 -5.33c2.7,0 4.17,1.57 4.17,3.61 0,2.03 -1.47,3.65 -4.03,3.65l-6.67 0 0 -12.28 9.56 0 0 1.93 -7.54 0 0 3.09 4.51 0z"/>
   <path class="fil0" d="M134.51 7.96l4.23 0 -2.1 -4.9 -2.13 4.9zm6.35 4.91l-1.33 -3.07 -5.81 0 -1.33 3.07 -2.21 0 5.33 -12.28 2.23 0 5.33 12.28 -2.21 0z"/>
   <polygon class="fil0" points="153.69,0.59 155.71,0.59 155.71,12.87 153.69,12.87 153.69,7.6 146.58,7.6 146.58,12.87 144.57,12.87 144.57,0.59 146.58,0.59 146.58,5.68 153.69,5.68 "/>
   <polygon class="fil0" points="164.56,6.54 170,12.87 170,12.87 167.32,12.87 162.78,7.5 160.44,7.5 160.44,12.87 158.42,12.87 158.42,0.59 160.44,0.59 160.44,5.66 162.78,5.66 167.21,0.59 169.9,0.59 "/>
   <path class="fil1" d="M0 15c0,8.29 6.72,15.01 15.01,15.01 0.2,0 0.4,0 0.6,-0.01l0 -5.69 -0.6 0c-5.14,0 -9.31,-4.17 -9.31,-9.31 0,-5.14 4.17,-9.3 9.31,-9.3l0.6 0 0 -5.69c-0.17,0 -0.33,-0.01 -0.49,-0.01l-0.02 0 -0.14 0c-8.27,0.02 -14.96,6.73 -14.96,15z"/>
   <path class="fil0" d="M18.01 0.3l0 7.8 -3 0c-3.82,0 -6.91,3.09 -6.91,6.9 0,3.82 3.09,6.91 6.91,6.91l3 0 0 7.8c6.85,-1.39 12,-7.44 12,-14.71 0,-7.26 -5.15,-13.31 -12,-14.7z"/>
   <path class="fil1" d="M42.17 17.52c2.18,0 3.84,0.92 4.55,1.61l-1.19 1.44c-0.6,-0.54 -1.83,-1.22 -3.39,-1.22 -2.5,0 -4.16,1.8 -4.16,4.26 0,2.46 1.59,4.26 4.16,4.26 1.75,0 3.04,-0.8 3.66,-1.4l1.11 1.48c-0.69,0.77 -2.44,1.75 -4.74,1.75 -3.74,0 -6.16,-2.58 -6.16,-6.09 0,-3.51 2.48,-6.09 6.16,-6.09z"/>
   <polygon class="fil1" points="58.06,19.62 53.9,19.62 53.9,29.44 51.99,29.44 51.99,19.62 47.81,19.62 47.81,17.79 58.06,17.79 "/>
   <path class="fil1" d="M65.43 23.34c1.83,0 2.41,-0.84 2.41,-1.86 0,-1.01 -0.58,-1.86 -2.41,-1.86l-3.74 0 0 3.72 3.74 0zm4.41 -1.88c0,2.08 -1.4,3.71 -4.32,3.71l-3.83 0 0 4.27 -1.92 0 0 -11.65 5.61 0c3.06,0 4.46,1.6 4.46,3.67z"/>
   <path class="fil1" d="M73.7 24.78l4.01 0 -1.99 -4.65 -2.02 4.65zm6.02 4.66l-1.26 -2.92 -5.51 0 -1.26 2.92 -2.1 0 5.06 -11.65 2.11 0 5.06 11.65 -2.1 0z"/>
   <polygon class="fil1" points="94.38,29.44 92.05,29.44 88.43,24.89 84.77,29.44 82.45,29.44 87.18,23.53 82.62,17.79 84.91,17.79 88.41,22.11 91.9,17.79 94.22,17.79 89.66,23.49 "/>
   <path class="fil1" d="M100.92 27.87c2.41,0 4.2,-1.81 4.2,-4.26 0,-2.44 -1.79,-4.26 -4.2,-4.26 -2.41,0 -4.19,1.82 -4.19,4.26 0,2.45 1.78,4.26 4.19,4.26zm0 -10.35c3.56,0 6.16,2.58 6.16,6.09 0,3.51 -2.6,6.09 -6.16,6.09 -3.56,0 -6.16,-2.58 -6.16,-6.09 0,-3.51 2.6,-6.09 6.16,-6.09z"/>
   <path class="fil1" d="M115.73 27.6c1.35,0 1.86,-0.76 1.86,-1.58 0,-0.88 -0.51,-1.58 -1.78,-1.58l-4.49 0 0 3.16 4.41 0zm-4.41 -7.98l0 3.09 3.76 -0.01c1.3,0 1.93,-0.74 1.93,-1.6 0,-0.8 -0.61,-1.48 -1.81,-1.48l-3.88 0zm8.24 6.44c0,1.71 -1.1,3.38 -3.95,3.38l-6.2 0 0 -11.65 5.84 0c2.36,0 3.72,1.46 3.72,3.11 0,0.93 -0.43,1.78 -1.46,2.46 1.05,0.35 2.05,1.1 2.05,2.7z"/>
   <path class="fil1" d="M124.36 24.78l4.01 0 -1.99 -4.65 -2.02 4.65zm6.03 4.66l-1.27 -2.92 -5.5 0 -1.27 2.92 -2.1 0 5.06 -11.65 2.12 0 5.06 11.65 -2.1 0z"/>
   <polygon class="fil1" points="142.8,17.79 144.72,17.79 144.72,29.44 142.8,29.44 142.8,24.36 136.06,24.36 136.06,29.44 134.15,29.44 134.15,17.79 136.06,17.79 136.06,22.53 142.8,22.53 "/>
   <polygon class="fil1" points="156.28,17.79 158.04,17.79 158.04,29.44 156.13,29.44 156.13,20.72 149.29,29.44 147.54,29.44 147.54,17.79 149.46,17.79 149.46,26.47 "/>
   <polygon class="fil1" points="162.78,27.6 169.86,27.6 169.86,29.44 160.87,29.44 160.87,17.79 169.69,17.79 169.69,19.62 162.78,19.62 162.78,22.65 169.14,22.65 169.14,24.48 162.78,24.48 "/>
  </g>
 </g>
</svg>
